<svg xmlns:dc="http://purl.org/dc/elements/1.1/" xmlns:cc="http://creativecommons.org/ns#" xmlns:rdf="http://www.w3.org/1999/02/22-rdf-syntax-ns#" xmlns:svg="http://www.w3.org/2000/svg" xmlns="http://www.w3.org/2000/svg" id="svg12" xml:space="preserve" y="0px" x="0px" version="1.1" viewBox="206.75 333.17 610.5 101.68"><metadata id="metadata18"><rdf:RDF><cc:Work rdf:about=""><dc:format>image/svg+xml</dc:format><dc:type rdf:resource="http://purl.org/dc/dcmitype/StillImage"/></cc:Work></rdf:RDF></metadata><defs id="defs16"/><g transform="translate(5e-6,12.402)" id="logo-group"><path stroke-miterlimit="2" d="m 252.67,346.62 h -16.94 v 48.312 H 223.7 v -48.31 h -16.95 v -9.6703 h 45.914 z" style="font-variant-ligatures:none;fill:#4c5a51;stroke-width:0;stroke-miterlimit:2" id="path711905"/><path stroke-miterlimit="2" d="m 278.1,353.73 v 41.199 h -11.02 v -41.2 z m 1.3187,-11.708 q 0,1.3986 -0.55944,2.5974 -0.55944,1.1988 -1.5185,2.1179 -0.91908,0.91908 -2.1978,1.4386 -1.2388,0.51948 -2.6773,0.51948 -1.3586,0 -2.5974,-0.51948 -1.1988,-0.51948 -2.1179,-1.4386 -0.91908,-0.91908 -1.4785,-2.1179 -0.51948,-1.1988 -0.51948,-2.5974 0,-1.3986 0.51948,-2.5974 0.55944,-1.2388 1.4785,-2.1578 0.91908,-0.91908 2.1179,-1.4386 1.2388,-0.51948 2.5974,-0.51948 1.4386,0 2.6773,0.51948 1.2787,0.51948 2.1978,1.4386 0.95904,0.91908 1.5185,2.1578 0.55944,1.1988 0.55944,2.5974 z" style="font-variant-ligatures:none;fill:#4c5a51;stroke-width:0;stroke-miterlimit:2" id="path711907"/><path stroke-miterlimit="2" d="m 296.4,394.93 v -41.2 h 6.7932 q 2.0779,0 2.7572,1.9181 l 0.63936,2.6773 q 1.0789,-1.1189 2.1978,-2.0779 1.1588,-0.95904 2.4775,-1.6384 1.3187,-0.71928 2.8372,-1.1189 1.5584,-0.3996 3.3566,-0.3996 3.7962,0 6.2737,2.038 2.4775,1.998 3.7562,5.3546 0.999,-1.958 2.4376,-3.3566 1.4785,-1.4386 3.1968,-2.3177 1.7582,-0.87912 3.6763,-1.2787 1.958,-0.43956 3.9161,-0.43956 3.4765,0 6.1538,1.039 2.6773,1.039 4.4755,3.0769 1.8382,1.998 2.7972,4.9151 0.95904,2.9171 0.95904,6.6334 v 26.174 h -11.029 v -26.174 q 0,-7.2328 -6.1938,-7.2328 -1.3986,0 -2.5974,0.47952 -1.1588,0.43956 -2.0779,1.3586 -0.87912,0.91908 -1.3986,2.2777 -0.47952,1.3586 -0.47952,3.1169 v 26.174 h -11.029 v -26.174 q 0,-3.9161 -1.5584,-5.5544 -1.5185,-1.6783 -4.5155,-1.6783 -1.9181,0 -3.6364,0.91908 -1.6783,0.87912 -3.1568,2.4775 v 30.01 z" style="font-variant-ligatures:none;fill:#4c5a51;stroke-width:0;stroke-miterlimit:2" id="path711909"/><path stroke-miterlimit="2" d="m 607.74,374.15 q 0,4.8751 -1.1988,8.8312 -1.1988,3.9161 -3.6364,6.7532 -2.3976,2.7972 -6.034,4.3157 -3.6364,1.5185 -8.4715,1.5185 -2.1978,0 -4.3556,-0.27972 -2.1179,-0.23976 -4.4755,-0.7992 0.15984,-1.7582 0.31968,-3.5165 0.15984,-1.7582 0.31968,-3.5165 0.11988,-0.95904 0.75924,-1.5185 0.63936,-0.5994 1.8382,-0.5994 0.67932,0 1.7183,0.23976 1.0789,0.23976 2.6374,0.23976 2.1578,0 3.7562,-0.5994 1.5984,-0.5994 2.6773,-1.958 1.0789,-1.3586 1.5984,-3.5165 0.55944,-2.1978 0.55944,-5.3147 v -37.48 h 11.988 z" style="font-variant-ligatures:none;fill:#4c5a51;stroke-width:0;stroke-miterlimit:2" id="path711913"/><path stroke-miterlimit="2" d="m 644,353.09 q 4.6354,0 8.4316,1.4785 3.7962,1.4785 6.5135,4.2358 2.7173,2.7173 4.1958,6.6334 1.4785,3.9161 1.4785,8.8312 0,4.9151 -1.4785,8.8711 -1.4785,3.9161 -4.1958,6.6733 -2.7173,2.7572 -6.5135,4.2358 -3.7962,1.4785 -8.4316,1.4785 -4.6753,0 -8.5115,-1.4785 -3.7962,-1.4785 -6.5135,-4.2358 -2.7173,-2.7572 -4.2358,-6.6733 -1.4785,-3.956 -1.4785,-8.8711 0,-4.9151 1.4785,-8.8312 1.5185,-3.9161 4.2358,-6.6334 2.7173,-2.7572 6.5135,-4.2358 Q 639.3247,353.09 644,353.09 Z m 0,34.166 q 4.7153,0 6.993,-3.2368 2.2777,-3.2767 2.2777,-9.7103 0,-6.3936 -2.2777,-9.6304 -2.2777,-3.2767 -6.993,-3.2767 -4.8352,0 -7.1129,3.2767 -2.2777,3.2368 -2.2777,9.6304 0,6.4336 2.2777,9.7103 2.2777,3.2368 7.1129,3.2368 z" style="font-variant-ligatures:none;fill:#4c5a51;stroke-width:0;stroke-miterlimit:2" id="path711915"/><path stroke-miterlimit="2" d="m 691.53,357.77 q 1.1588,-1.039 2.3976,-1.8781 1.2787,-0.87912 2.6773,-1.4785 1.4386,-0.63936 3.037,-0.95904 1.6384,-0.35964 3.5165,-0.35964 3.3566,0 5.954,1.1588 2.5974,1.1588 4.3556,3.2368 1.7982,2.0779 2.6773,4.955 0.91908,2.8771 0.91908,6.3137 v 26.174 h -10.989 v -26.174 q 0,-3.4366 -1.5984,-5.3147 -1.5984,-1.9181 -4.7153,-1.9181 -2.3177,0 -4.3556,0.999 -2.038,0.999 -3.8761,2.7972 v 29.61 h -11.02 v -59.58 h 11.029 z" style="font-variant-ligatures:none;fill:#4c5a51;stroke-width:0;stroke-miterlimit:2" id="path711917"/><path stroke-miterlimit="2" d="m 744.88,358.53 q 1.2388,-1.1988 2.5574,-2.1978 1.3586,-0.999 2.8372,-1.7183 1.5185,-0.71928 3.2368,-1.1189 1.7582,-0.3996 3.7962,-0.3996 3.3566,0 5.954,1.1588 2.5974,1.1588 4.3556,3.2368 1.7982,2.0779 2.6773,4.955 0.91908,2.8771 0.91908,6.3137 v 26.174 h -10.989 v -26.174 q 0,-3.4366 -1.5984,-5.3147 -1.5984,-1.9181 -4.7153,-1.9181 -2.3177,0 -4.3556,0.999 -2.038,0.999 -3.8761,2.7972 v 29.61 h -11.03 v -41.2 h 6.7932 q 2.0779,0 2.7572,1.9181 z" style="font-variant-ligatures:none;fill:#4c5a51;stroke-width:0;stroke-miterlimit:2" id="path711919"/><path stroke-miterlimit="2" d="m 814.41,362.2 q -0.43956,0.67932 -0.91908,0.999 -0.43956,0.27972 -1.2388,0.27972 -0.7992,0 -1.6384,-0.3996 -0.83916,-0.3996 -1.8781,-0.83916 -1.039,-0.47952 -2.3976,-0.87912 -1.3187,-0.3996 -3.0769,-0.3996 -2.6773,0 -4.1558,1.1189 -1.4785,1.0789 -1.4785,2.8771 0,1.2388 0.83916,2.0779 0.83916,0.83916 2.1978,1.4785 1.3986,0.5994 3.1568,1.1588 1.7582,0.51948 3.5964,1.1588 1.8781,0.63936 3.6364,1.4785 1.7582,0.83916 3.1169,2.1179 1.3986,1.2388 2.2378,3.037 0.83916,1.7582 0.83916,4.2757 0,2.997 -1.1189,5.5544 -1.0789,2.5175 -3.1968,4.3556 -2.1179,1.8382 -5.2747,2.8771 -3.1568,1.039 -7.2727,1.039 -2.1179,0 -4.1958,-0.3996 -2.0779,-0.35964 -3.956,-1.039 -1.8781,-0.71928 -3.5165,-1.6384 -1.6384,-0.91908 -2.8372,-1.998 l 2.5574,-4.1159 q 0.43956,-0.71928 1.0789,-1.1189 0.67932,-0.3996 1.7183,-0.3996 0.999,0 1.8382,0.51948 0.83916,0.47952 1.8781,1.0789 1.039,0.55944 2.4376,1.0789 1.4386,0.47952 3.5564,0.47952 1.5984,0 2.7572,-0.35964 1.1588,-0.35964 1.8781,-0.95904 0.71928,-0.63936 1.039,-1.3986 0.35964,-0.7992 0.35964,-1.6384 0,-1.3586 -0.87912,-2.1978 -0.83916,-0.87912 -2.2378,-1.5185 -1.3586,-0.63936 -3.1568,-1.1588 -1.7982,-0.51948 -3.6763,-1.1588 -1.8382,-0.63936 -3.6364,-1.5185 -1.7582,-0.87912 -3.1568,-2.1978 -1.3586,-1.3586 -2.2378,-3.3167 -0.83916,-1.958 -0.83916,-4.7552 0,-2.5574 0.999,-4.8352 0.999,-2.3177 2.997,-4.0759 1.998,-1.7582 4.955,-2.7972 2.997,-1.039 6.9131,-1.039 4.3956,0 7.992,1.4386 3.5964,1.4386 5.9141,3.7562 z" style="font-variant-ligatures:none;fill:#4c5a51;stroke-width:0;stroke-miterlimit:2" id="path711921"/><path style="fill:#0e983b;stroke-width:1.27719998" d="m 425.43,320.82 c -0.01,7.1e-4 -9.1725,9.0965 -20.362,20.211 -11.189,11.116 -22.684,22.536 -25.543,25.377 l -5.1994,5.1668 15.069,14.971 c 8.2883,8.233 19.791,19.665 25.561,25.402 l 10.492,10.432 -0.001,-5.9918 -7.1e-4,-5.9912 -16.953,-16.846 c -9.3234,-9.2723 -18.109,-18.008 -19.524,-19.426 l -2.5722,-2.5773 19.524,-19.386 19.525,-19.385 10e-4,-5.9827 c 7.1e-4,-3.2906 -0.006,-5.9819 -0.0163,-5.9805 z m 64.037,-0.002 h -4.1591 l -0.10792,0.23078 c -0.0589,0.12711 -9.6888,22.983 -21.399,50.791 l -21.293,50.559 4.1236,0.0185 c 2.2674,0.0102 4.1463,-0.005 4.174,-0.0355 0.0277,-0.0299 9.6596,-22.87 21.403,-50.756 11.744,-27.886 21.367,-50.725 21.385,-50.755 0.0177,-0.0291 -1.8391,-0.0532 -4.1272,-0.0532 z m 24.371,3.1316 -3.1777,-3.1664 10e-4,5.9996 0.001,6.0004 19.525,19.386 19.525,19.386 -2.6082,2.6125 c -1.4344,1.4366 -10.221,10.176 -19.525,19.422 l -16.917,16.809 -0.001,5.9968 -10e-4,5.9962 5.5211,-5.5019 c 3.0365,-3.0265 14.542,-14.463 25.569,-25.413 l 20.046,-19.911 -0.73212,-0.72289 c -0.37,-0.41 -10.44,-10.41 -22.36,-22.24 -11.9,-11.82 -23.08,-22.92 -24.83,-24.66 z" id="icon"/></g></svg>